<svg xmlns:mydata="http://www.w3.org/2000/svg" mydata:contrastcolor="ffffff" mydata:template="Default"
     mydata:presentation="2.5" mydata:layouttype="undefined" mydata:specialfontid="undefined" mydata:id1="046"
     mydata:id2="048" mydata:companyname="Auto Sec" mydata:companytagline="" version="1.1"
     xmlns="http://www.w3.org/2000/svg" xmlns:xlink="http://www.w3.org/1999/xlink" viewBox="0 35 550 400">
    <g fill="#d22630" fill-rule="nonzero" stroke="none" stroke-width="1" stroke-linecap="butt" stroke-linejoin="miter"
       stroke-miterlimit="10" stroke-dasharray="" stroke-dashoffset="0" font-family="none" font-weight="none"
       font-size="none" text-anchor="none" style="mix-blend-mode: normal">
        <g data-paper-data="{&quot;isGlobalGroup&quot;:true,&quot;bounds&quot;:{&quot;x&quot;:65.00000000000001,&quot;y&quot;:184.78883205796762,&quot;width&quot;:420,&quot;height&quot;:100.42233588406475}}">
            <g data-paper-data="{&quot;isPrimaryText&quot;:true}">
                <path d="M203.86039,213.1869c1.72569,3.66182 3.41981,7.48148 5.08236,11.45898c1.66255,3.9775 3.25145,7.89186 4.76668,11.74309c1.51524,3.85123 2.91473,7.54462 4.19847,11.08017c1.28374,3.53555 2.40965,6.6923 3.37772,9.47023h-10.8592c-0.8418,-2.5254 -1.75725,-5.25072 -2.74637,-8.17597c-0.98911,-2.92525 -1.99927,-5.83998 -3.03047,-8.74418c-1.0312,-2.9042 -2.04136,-5.68214 -3.03047,-8.3338c-0.98911,-2.65166 -1.88352,-4.94557 -2.68323,-6.8817c-0.8418,1.93614 -1.75725,4.23004 -2.74637,6.8817c-0.98911,2.65166 -1.98875,5.4296 -2.99891,8.3338c-1.01016,2.9042 -2.00979,5.81893 -2.99891,8.74418c-0.98911,2.92525 -1.90457,5.65057 -2.74637,8.17597h-10.48039c0.92598,-2.77793 2.03084,-5.93468 3.31458,-9.47023c1.28374,-3.53555 2.68323,-7.23947 4.19847,-11.11174c1.51524,-3.87227 3.11465,-7.78663 4.79825,-11.74309c1.6836,-3.95645 3.38824,-7.76559 5.11393,-11.42741z"
                      data-paper-data="{&quot;glyphName&quot;:&quot;Λ&quot;,&quot;glyphIndex&quot;:0,&quot;firstGlyphOfWord&quot;:true,&quot;word&quot;:1}"></path>
                <path d="M244.07731,257.82326c-3.07256,0 -5.72423,-0.43142 -7.95499,-1.29426c-2.23077,-0.86284 -4.0722,-2.06241 -5.5243,-3.59869c-1.4521,-1.53628 -2.5254,-3.36719 -3.21988,-5.49273c-0.69448,-2.12554 -1.04173,-4.47205 -1.04173,-7.03954v-27.21113h9.84904v26.39038c0,1.76778 0.19993,3.27249 0.59978,4.51414c0.39985,1.24165 0.94702,2.25181 1.64151,3.03047c0.69448,0.77866 1.53628,1.33635 2.5254,1.67307c0.98911,0.33672 2.07293,0.50508 3.25145,0.50508c2.39913,0 4.34578,-0.73657 5.83998,-2.20972c1.49419,-1.47315 2.24129,-3.9775 2.24129,-7.51305v-26.39038h9.84904v27.21113c0,2.56749 -0.35776,4.92452 -1.07329,7.07111c-0.71553,2.14659 -1.80987,3.98802 -3.28301,5.5243c-1.47315,1.53628 -3.34615,2.72532 -5.619,3.56712c-2.27286,0.8418 -4.96661,1.2627 -8.08126,1.2627z"
                      data-paper-data="{&quot;glyphName&quot;:&quot;U&quot;,&quot;glyphIndex&quot;:1,&quot;word&quot;:1}"></path>
                <path d="M304.05544,213.1869v8.39694h-13.19519v35.35553h-9.84904v-35.35553h-13.19519v-8.39694z"
                      data-paper-data="{&quot;glyphName&quot;:&quot;T&quot;,&quot;glyphIndex&quot;:2,&quot;word&quot;:1}"></path>
                <path d="M318.6396,235.03157c0,2.14659 0.26306,4.08272 0.78919,5.80841c0.52612,1.72569 1.28374,3.20936 2.27286,4.45101c0.98911,1.24165 2.1992,2.1992 3.63026,2.87264c1.43106,0.67344 3.07256,1.01016 4.92452,1.01016c1.80987,0 3.44085,-0.33672 4.89295,-1.01016c1.4521,-0.67344 2.67271,-1.63098 3.66182,-2.87264c0.98911,-1.24165 1.74673,-2.72532 2.27286,-4.45101c0.52612,-1.72569 0.78919,-3.66182 0.78919,-5.80841c0,-2.14659 -0.26306,-4.09324 -0.78919,-5.83998c-0.52612,-1.74673 -1.28374,-3.24092 -2.27286,-4.48258c-0.98911,-1.24165 -2.20972,-2.1992 -3.66182,-2.87264c-1.4521,-0.67344 -3.08309,-1.01016 -4.89295,-1.01016c-1.85196,0 -3.49346,0.34724 -4.92452,1.04173c-1.43106,0.69448 -2.64114,1.66255 -3.63026,2.9042c-0.98911,1.24165 -1.74673,2.73584 -2.27286,4.48258c-0.52612,1.74673 -0.78919,3.67235 -0.78919,5.77684zM352.03795,235.03157c0,3.746 -0.55769,7.03954 -1.67307,9.88061c-1.11538,2.84107 -2.64114,5.21915 -4.57728,7.13424c-1.93614,1.91509 -4.24056,3.35667 -6.91327,4.32474c-2.67271,0.96807 -5.54535,1.4521 -8.61791,1.4521c-2.98838,0 -5.80841,-0.48403 -8.46007,-1.4521c-2.65166,-0.96807 -4.96661,-2.40965 -6.94484,-4.32474c-1.97823,-1.91509 -3.53555,-4.29317 -4.67198,-7.13424c-1.13643,-2.84107 -1.70464,-6.13461 -1.70464,-9.88061c0,-3.746 0.58926,-7.03954 1.76778,-9.88061c1.17852,-2.84107 2.76741,-5.22967 4.76668,-7.16581c1.99927,-1.93614 4.31422,-3.38824 6.94484,-4.35631c2.63062,-0.96807 5.39803,-1.4521 8.30224,-1.4521c2.98838,0 5.80841,0.48403 8.46007,1.4521c2.65166,0.96807 4.96661,2.42017 6.94484,4.35631c1.97823,1.93614 3.53555,4.32474 4.67198,7.16581c1.13643,2.84107 1.70464,6.13461 1.70464,9.88061z"
                      data-paper-data="{&quot;glyphName&quot;:&quot;O&quot;,&quot;glyphIndex&quot;:3,&quot;lastGlyphOfWord&quot;:true,&quot;word&quot;:1}"></path>
                <path d="M387.33034,249.42632c1.38897,0 2.53592,-0.11575 3.44085,-0.34724c0.90493,-0.23149 1.63098,-0.54717 2.17815,-0.94702c0.54717,-0.39985 0.92598,-0.87337 1.13643,-1.42053c0.21045,-0.54717 0.31567,-1.15747 0.31567,-1.83091c0,-1.43106 -0.67344,-2.6201 -2.02032,-3.56712c-1.34688,-0.94702 -3.66182,-1.9677 -6.94484,-3.06204c-1.43106,-0.50508 -2.86211,-1.08382 -4.29317,-1.73621c-1.43106,-0.65239 -2.7148,-1.47315 -3.85123,-2.46226c-1.13643,-0.98911 -2.06241,-2.18868 -2.77793,-3.59869c-0.71553,-1.41001 -1.07329,-3.12518 -1.07329,-5.14549c0,-2.02032 0.37881,-3.84071 1.13643,-5.46117c0.75762,-1.62046 1.83091,-2.99891 3.21988,-4.13533c1.38897,-1.13643 3.07256,-2.00979 5.05079,-2.6201c1.97823,-0.6103 4.20899,-0.91546 6.6923,-0.91546c2.94629,0 5.49273,0.31567 7.63932,0.94702c2.14659,0.63135 3.91436,1.32583 5.30333,2.08345l-2.84107,7.76559c-1.22061,-0.63135 -2.57801,-1.18904 -4.0722,-1.67307c-1.49419,-0.48403 -3.29354,-0.72605 -5.39803,-0.72605c-2.35704,0 -4.05115,0.3262 -5.08236,0.97859c-1.0312,0.65239 -1.5468,1.65203 -1.5468,2.99891c0,0.79971 0.1894,1.47315 0.56821,2.02032c0.37881,0.54717 0.91546,1.04173 1.60994,1.48367c0.69448,0.44194 1.49419,0.8418 2.39913,1.19956c0.90493,0.35776 1.90457,0.72605 2.99891,1.10486c2.27286,0.8418 4.25108,1.67307 5.93468,2.49383c1.6836,0.82075 3.08309,1.7783 4.19847,2.87264c1.11538,1.09434 1.94666,2.37808 2.49383,3.85123c0.54717,1.47315 0.82075,3.26197 0.82075,5.36646c0,4.08272 -1.43106,7.24999 -4.29317,9.5018c-2.86211,2.25181 -7.17633,3.37772 -12.94265,3.37772c-1.93614,0 -3.68287,-0.11575 -5.24019,-0.34724c-1.55733,-0.23149 -2.93577,-0.5156 -4.13533,-0.85232c-1.19956,-0.33672 -2.23077,-0.69448 -3.09361,-1.07329c-0.86284,-0.37881 -1.58889,-0.73657 -2.17815,-1.07329l2.77793,-7.82872c1.30479,0.71553 2.91473,1.3574 4.82982,1.92561c1.91509,0.56821 4.2616,0.85232 7.03954,0.85232z"
                      data-paper-data="{&quot;glyphName&quot;:&quot;S&quot;,&quot;glyphIndex&quot;:4,&quot;firstGlyphOfWord&quot;:true,&quot;word&quot;:2}"></path>
                <path d="M412.14235,256.93937v-43.75247h29.54712v8.27067h-19.69808v8.58634h17.48836v8.08126h-17.48836v10.54352h21.15018v8.27067z"
                      data-paper-data="{&quot;glyphName&quot;:&quot;E&quot;,&quot;glyphIndex&quot;:5,&quot;word&quot;:2}"></path>
                <path d="M470.35271,257.82326c-7.1132,0 -12.53227,-1.97823 -16.25723,-5.93468c-3.72496,-3.95645 -5.58744,-9.57546 -5.58744,-16.85701c0,-3.61973 0.56821,-6.85013 1.70464,-9.6912c1.13643,-2.84107 2.69375,-5.24019 4.67198,-7.19738c1.97823,-1.95718 4.33526,-3.44085 7.07111,-4.45101c2.73584,-1.01016 5.70318,-1.51524 8.90202,-1.51524c1.85196,0 3.53555,0.13679 5.05079,0.41038c1.51524,0.27358 2.84107,0.58926 3.9775,0.94702c1.13643,0.35776 2.08345,0.72605 2.84107,1.10486c0.75762,0.37881 1.30479,0.67344 1.64151,0.88389l-2.84107,7.95499c-1.34688,-0.71553 -2.91473,-1.32583 -4.70355,-1.83091c-1.78882,-0.50508 -3.81966,-0.75762 -6.09252,-0.75762c-1.51524,0 -2.99891,0.25254 -4.45101,0.75762c-1.4521,0.50508 -2.73584,1.31531 -3.85123,2.43069c-1.11538,1.11538 -2.00979,2.55696 -2.68323,4.32474c-0.67344,1.76778 -1.01016,3.91436 -1.01016,6.43976c0,2.02032 0.22097,3.90384 0.66292,5.65057c0.44194,1.74673 1.15747,3.25145 2.14659,4.51414c0.98911,1.2627 2.28338,2.26233 3.88279,2.99891c1.59942,0.73657 3.53555,1.10486 5.80841,1.10486c1.43106,0 2.7148,-0.08418 3.85123,-0.25254c1.13643,-0.16836 2.14659,-0.36829 3.03047,-0.59978c0.88389,-0.23149 1.66255,-0.49456 2.33599,-0.78919c0.67344,-0.29463 1.28374,-0.56821 1.83091,-0.82075l2.7148,7.89186c-1.38897,0.8418 -3.34615,1.59942 -5.87154,2.27286c-2.5254,0.67344 -5.45064,1.01016 -8.77575,1.01016z"
                      data-paper-data="{&quot;glyphName&quot;:&quot;C&quot;,&quot;glyphIndex&quot;:6,&quot;lastGlyphOfWord&quot;:true,&quot;word&quot;:2}"></path>
            </g>
            <g data-paper-data="{&quot;fillRule&quot;:&quot;nonzero&quot;,&quot;fillRuleOriginal&quot;:&quot;evenodd&quot;,&quot;isIcon&quot;:true,&quot;iconStyle&quot;:&quot;standalone&quot;,&quot;selectedEffects&quot;:{&quot;container&quot;:&quot;shield_simple_filledplus&quot;,&quot;transformation&quot;:&quot;&quot;,&quot;pattern&quot;:&quot;&quot;},&quot;bounds&quot;:{&quot;x&quot;:65.00000000000001,&quot;y&quot;:184.78883205796762,&quot;width&quot;:80.93096529598073,&quot;height&quot;:100.42233588406475},&quot;widthRatioIconToContainer&quot;:0.7731776904729744,&quot;heightRatioIconToContainer&quot;:0.6558811796273999,&quot;relativeBoundsIconToContainer&quot;:{&quot;top&quot;:-0.04443714268624865,&quot;left&quot;:0.00023564842281046682},&quot;iconType&quot;:&quot;icon&quot;,&quot;isDetailed&quot;:false,&quot;source&quot;:&quot;ai&quot;,&quot;rawIconId&quot;:&quot;rHv70ZgEKaAxFJDm17dvP0dWFmzrwHdcuXUhf2jcdC&quot;,&quot;blockLetter&quot;:&quot;V&quot;,&quot;suitableAsStandaloneIcon&quot;:true}">
                <path d="M102.93209,278.99673c-2.2201,-0.87624 -6.32356,-2.91174 -8.45285,-4.193c-4.13366,-2.48735 -9.21033,-6.83893 -12.3651,-10.599c-5.78838,-6.89901 -10.26567,-16.99089 -11.2837,-25.43365c-0.29832,-2.47404 -0.32061,-42.37559 -0.02425,-43.40893c0.23697,-0.82625 0.90898,-1.61393 1.75038,-2.05165c0.65752,-0.34206 5.45649,-1.06989 12.20187,-1.85057c8.187,-0.94753 10.80847,-1.0817 21.02647,-1.07613c10.5809,0.00576 13.6542,0.18903 23.13969,1.37983c9.48422,1.19064 9.98493,1.31543 10.93517,2.72549l0.47619,0.70662v21.8017c0,14.65801 -0.07458,22.21256 -0.22761,23.0556c-1.90927,10.5179 -6.82149,20.06149 -14.02649,27.25105c-4.91779,4.90724 -10.90851,8.84598 -17.44409,11.469c-2.66328,1.0689 -3.48269,1.10102 -5.70568,0.22364zM90.95693,202.96114c-1.4812,0.25221 -5.60123,0.67905 -7.94745,0.82342l-1.2155,0.0748v7.89726c0,4.3435 0.04464,7.9248 0.09924,7.95862c0.05461,0.03371 0.61947,-0.9809 1.25514,-2.25459l1.15602,-2.31583l-0.01259,-4.5766l-0.01247,-4.57646l0.77032,-0.08053c0.42361,-0.04425 1.05653,-0.08053 1.40648,-0.08053c0.66776,0 4.05068,-0.39495 5.43578,-0.63467c1.22712,-0.21218 3.94213,-0.82267 4.92432,-1.10704c2.52976,-0.73253 5.80617,-2.10387 7.95155,-3.32807c1.09295,-0.62358 1.24192,-0.67707 1.4336,-0.5145c0.37242,0.31567 2.16622,1.31087 3.33082,1.8478c4.78462,2.20609 9.54993,3.36598 15.42982,3.75581l2.22256,0.14723l-0.01955,4.75326l-0.01955,4.7531l1.07816,2.15348c0.64939,1.29724 1.1381,2.13355 1.22892,2.10344c0.11488,-0.03833 0.16557,-1.87536 0.21316,-7.70687c0.03422,-4.2111 0.04322,-7.77518 0.01981,-7.92016c-0.03988,-0.24758 -0.14189,-0.26879 -1.68303,-0.34919c-8.33529,-0.43546 -15.41708,-2.27951 -20.49282,-5.3362c-0.77211,-0.46488 -1.47438,-0.84436 -1.5607,-0.84324c-0.08632,0.00112 -0.5776,0.25768 -1.09179,0.57022c-3.4812,2.11532 -8.63336,3.88932 -13.90025,4.78604zM94.42502,205.34114c-2.58135,0.57783 -4.4841,0.8375 -8.73522,1.1923l-0.77917,0.06507v3.6678c0,2.01724 0.02705,3.66772 0.06022,3.66772c0.03316,0 0.19797,-0.26642 0.36639,-0.59227c0.53631,-1.03712 1.88274,-2.9579 2.10323,-3.0004c0.33125,-0.06383 0.25883,0.18505 -0.37101,1.27401c-0.94483,1.63364 -2.70063,5.24439 -3.41471,7.0221l-0.66247,1.6492l0.29408,0.31299c0.36253,0.38593 1.25339,0.73031 3.12026,1.20641c3.22168,0.82164 6.43711,1.08202 8.20698,0.6647c0.83515,-0.19695 2.28997,-0.82537 3.24798,-1.40324c1.12305,-0.67756 3.15278,-1.54359 4.2986,-1.83419c3.03661,-0.77032 8.58332,-0.69789 14.78956,0.19335c1.96451,0.28199 3.60895,0.61582 6.39651,1.29788c2.52501,0.61774 3.91371,0.58391 4.61018,-0.11269c0.30154,-0.30141 0.26784,-0.62958 -0.17392,-1.69371c-0.58919,-1.41893 -2.85793,-6.02744 -3.58258,-7.2772c-0.35364,-0.6099 -0.64295,-1.1954 -0.64295,-1.30123c0,-0.48943 1.44544,1.39965 2.4877,3.25146c0.22191,0.39416 0.44073,0.73982 0.48627,0.768c0.04567,0.02804 0.07899,-0.3786 0.07435,-0.90385c-0.0045,-0.52525 -0.01917,-2.28123 -0.03229,-3.90226l-0.02406,-2.94711l-1.40246,-0.08315c-6.01599,-0.35629 -11.46131,-1.70579 -16.11304,-3.99317c-1.16563,-0.57309 -2.33204,-1.18682 -2.59228,-1.36385c-0.26011,-0.17702 -0.4846,-0.31528 -0.49862,-0.30742c-0.01415,0.00785 -0.97936,0.50066 -2.14499,1.09493c-3.26663,1.66554 -5.85017,2.59941 -9.37254,3.3878zM74.24498,218.73525c-0.1304,0.86924 0.00611,1.44544 0.43384,1.8311c0.48071,0.4334 0.93062,0.54429 3.10232,0.76478c0.98124,0.09957 1.81064,0.20776 1.84306,0.24018c0.03242,0.03242 -0.16368,0.33279 -0.43583,0.66753c-0.27214,0.33486 -0.83776,1.02953 -1.25688,1.54371c-0.41924,0.51431 -0.95731,1.32773 -1.1958,1.80769c-0.85869,1.72819 -0.84199,1.56572 -0.89348,8.70231c-0.05361,7.44457 0.09987,12.64418 0.40292,13.64503c0.27701,0.91465 0.85658,1.46602 1.73211,1.64779c0.42497,0.08825 1.67961,0.12736 3.32009,0.10369l2.63694,-0.03834l0.35579,-0.39854c0.39333,-0.44047 0.61885,-1.10041 0.61984,-1.81425c0.00038,-0.25703 0.04576,-0.46749 0.10061,-0.46749c0.05497,0 0.68603,0.68271 1.40248,1.51734c5.07152,5.90741 11.53827,10.94507 18.47148,14.3891l1.19419,0.59317l0.66702,-0.27684c0.36702,-0.15244 1.46949,-0.72259 2.45013,-1.26739c6.24381,-3.46821 11.19901,-7.42296 15.66794,-12.50486c0.75308,-0.85638 1.41224,-1.53021 1.46486,-1.49779c0.05261,0.03254 0.09571,0.1756 0.09571,0.31775c0,0.42066 0.46993,1.05616 0.94926,1.28347c0.38889,0.1846 0.81238,0.20647 3.27049,0.16917c2.65287,-0.04026 2.8506,-0.05944 3.26496,-0.31723c0.58738,-0.36522 0.9499,-1.046 1.11816,-2.09958c0.31582,-1.97608 0.50711,-16.38538 0.24777,-18.64937c-0.25394,-2.21446 -0.84763,-3.43824 -2.62946,-5.41896c-0.61028,-0.67846 -1.10955,-1.33055 -1.10967,-1.44929c-0.00013,-0.25716 0.10677,-0.28134 2.05687,-0.46389c1.87767,-0.17572 2.35018,-0.31736 2.81098,-0.8421c0.32097,-0.3656 0.36792,-0.51573 0.36792,-1.17528c0,-0.96302 -0.27131,-1.54655 -0.85869,-1.84603c-0.65749,-0.33525 -2.76364,-0.76568 -4.13343,-0.84467c-1.5773,-0.09095 -1.63775,-0.03602 -1.58861,1.44325c0.02856,0.85844 0.07384,1.07726 0.22281,1.07726c0.13649,0 0.22088,-0.2358 0.31247,-0.87272l0.1253,-0.87272l0.53014,-0.03834c0.76169,-0.05506 3.43155,0.42452 4.01237,0.72079c0.37963,0.19361 0.5228,0.35917 0.62289,0.71963c0.16685,0.60051 0.16531,0.8686 -0.00528,0.97408c-0.07526,0.04657 -1.19084,0.13147 -2.47895,0.18897c-2.62573,0.11707 -3.34163,0.2497 -3.76178,0.69686l-0.28932,0.3081l0.24789,0.41732c0.13636,0.22976 0.83142,1.05333 1.54449,1.83046c2.20674,2.40472 2.79258,3.50912 3.02903,5.7102c0.1316,1.22597 0.03833,13.24636 -0.10858,13.9804c-0.12569,0.62881 -0.75256,1.17811 -1.53664,1.34676c-0.97254,0.20931 -3.01179,0.46684 -5.07123,0.64051c-2.3359,0.19708 -3.18263,0.06754 -6.27341,-0.95968l-2.43097,-0.80788l-13.11412,0.00231l-13.11412,0.00257l-2.41874,0.81971c-3.03289,1.02799 -3.99292,1.16949 -6.51604,0.96071c-2.55079,-0.21098 -5.28496,-0.6261 -5.78973,-0.87889c-0.29396,-0.14716 -0.53432,-0.41397 -0.73665,-0.81791l-0.30031,-0.59922l-0.05897,-6.50007c-0.06245,-6.88651 0.0015,-8.10849 0.48856,-9.34707c0.39906,-1.01461 1.47892,-2.52526 2.82169,-3.94741c1.5481,-1.63955 1.63897,-1.79547 1.27408,-2.1841c-0.38696,-0.41179 -1.09793,-0.53876 -3.85242,-0.68798c-1.33156,-0.07217 -2.46751,-0.16016 -2.52448,-0.19528c-0.13987,-0.08632 -0.1309,-0.7087 0.01559,-1.09424c0.16095,-0.42324 0.59591,-0.68618 1.4627,-0.88455c1.03374,-0.23632 2.90285,-0.47148 3.34254,-0.42028c0.36128,0.04207 0.37699,0.07088 0.46226,0.84377c0.10933,0.99133 0.16194,1.13206 0.42349,1.13206c0.184,0 0.20071,-0.13752 0.14536,-1.19419c-0.07917,-1.51477 -0.24347,-1.68522 -1.52977,-1.58617c-0.77792,0.05982 -2.79215,0.41127 -3.58614,0.62559c-0.90407,0.24417 -1.40797,0.76903 -1.53189,1.59543zM127.78432,227.5873c-2.90424,1.38523 -6.05432,2.80261 -6.22851,2.80261c-0.06496,0 -0.11809,0.05982 -0.11809,0.13302c0,0.07307 0.09828,0.10304 0.21818,0.06638c0.6683,-0.20428 1.70233,-0.43983 1.74466,-0.39738c0.02701,0.02701 -0.0714,0.28546 -0.21882,0.57426c-0.16737,0.3283 -0.23966,0.63704 -0.19297,0.82357c0.0934,0.37217 0.95942,1.01267 1.50834,1.11559c0.83142,0.15605 4.89332,-0.66019 6.23185,-1.25208c1.37777,-0.60938 2.26077,-2.48667 1.99705,-4.24612c-0.15977,-1.06439 -0.83322,-1.40928 -1.94971,-0.99827c-0.2461,0.09069 -1.59247,0.71089 -2.99198,1.37841zM78.89064,229.66064c0.67569,1.43386 1.34365,1.85503 3.90466,2.46287c3.39913,0.80659 4.59539,0.76414 5.34563,-0.18962c0.32405,-0.41191 0.32598,-0.61504 0.01106,-1.20255c-0.13713,-0.256 -0.24944,-0.49451 -0.24944,-0.5304c0,-0.0714 0.50698,0.02457 0.99737,0.18897c1.04986,0.35158 1.37533,0.21278 0.40471,-0.17277c-1.13412,-0.45025 -3.46699,-1.48866 -4.581,-2.03925c-2.34447,-1.15856 -4.32691,-2.02767 -4.77296,-2.09238c-0.26827,-0.03898 -0.59402,0.00077 -0.77467,0.09455c-0.84485,0.43829 -0.97438,2.01854 -0.28536,3.48056zM92.59353,230.85021c-1.47772,0.41256 -3.06093,2.41939 -2.91685,3.69745c0.03383,0.3 0.18949,0.80196 0.34605,1.11521l0.28443,0.56976l0.37898,-0.428c0.2084,-0.23555 0.44677,-0.42813 0.52975,-0.42813c0.08284,0 0.18524,-0.09018 0.22744,-0.20017c0.05622,-0.14652 0.16865,-0.17894 0.4186,-0.12092c0.24056,0.05583 0.28816,0.04386 0.16119,-0.04053c-0.32495,-0.21586 0.45977,-0.32418 2.29975,-0.31762c1.23214,0.0045 1.9775,0.06856 2.53465,0.21805c0.43404,0.11655 1.13528,0.21265 1.55825,0.21342c0.47186,0.00103 1.14428,0.12131 1.74002,0.3117c1.00934,0.32225 1.57562,0.38657 1.77797,0.20197c0.06509,-0.05944 0.39018,-0.19811 0.72246,-0.30823c0.57774,-0.19129 0.62611,-0.18872 1.11289,0.05969c0.38902,0.19837 0.6427,0.24236 1.0788,0.18653c1.01847,-0.12993 1.68124,-0.28919 2.25318,-0.54107c0.68606,-0.30218 1.78312,-0.4478 1.96939,-0.26166c0.07539,0.07551 0.88352,0.16029 1.85593,0.19503c1.34162,0.04773 1.89684,0.01646 2.51163,-0.14138c1.01512,-0.26089 1.76794,-0.25677 2.52964,0.01377c0.49695,0.1765 0.65505,0.18795 0.85638,0.06226c0.13585,-0.08478 0.35763,-0.15411 0.49309,-0.15411c0.13546,0 0.34656,-0.10472 0.46929,-0.23284c0.29806,-0.31119 1.07057,-0.43867 1.59967,-0.2641c0.23439,0.07745 0.49258,0.09957 0.57375,0.0494c0.08105,-0.05017 0.50994,-0.07809 0.95299,-0.06201l0.8053,0.0292l-0.08709,-0.47675c-0.18139,-0.99094 -1.09796,-2.10216 -2.19619,-2.66253c-0.28507,-0.14537 -0.8906,-0.34026 -1.34586,-0.4334c-1.80962,-0.36985 -10.9717,-0.596 -17.34583,-0.42813c-4.66253,0.1226 -7.15023,0.29922 -8.14966,0.57812zM78.38726,238.74245c-0.01159,1.58475 0.10384,1.96026 0.77704,2.52668c0.43596,0.36689 1.04196,0.52152 3.04122,0.77649c2.52036,0.32122 3.15591,0.24301 4.14314,-0.50981c0.54043,-0.4123 1.88349,-2.16931 2.19737,-2.87504c0.265,-0.59575 0.21612,-0.82473 -0.21805,-1.02258c-0.71448,-0.3256 -6.8388,-1.74402 -7.96753,-1.84538c-0.64639,-0.05802 -0.80596,-0.02727 -1.17323,0.22577c-0.61174,0.42143 -0.7874,1.01975 -0.79998,2.72388zM122.80906,238.23328c0,0.68888 2.07642,3.28348 3.00806,3.75869c0.57632,0.29395 1.41674,0.30951 3.29557,0.06033c2.09907,-0.27812 2.64361,-0.42491 3.11676,-0.84029c0.57915,-0.50852 0.71577,-1.10414 0.65415,-2.85124c-0.05557,-1.57368 -0.25639,-2.14872 -0.85612,-2.45232c-0.35338,-0.17881 -1.1848,-0.18319 -1.98779,-0.01055c-1.24089,0.2668 -6.33438,1.47168 -6.55655,1.55092c-0.41539,0.14832 -0.67409,0.44948 -0.67409,0.78446zM113.3345,239.7339c-8.13165,0.23195 -18.52086,0.07088 -20.63163,-0.31955c-1.92321,-0.35583 -1.93312,-0.35634 -1.9317,-0.09622c0.00206,0.38182 0.56256,1.45508 0.94926,1.81747c0.57812,0.54197 1.42356,0.84261 2.75064,0.97781c1.94894,0.19863 14.33172,0.28919 18.99169,0.1388c5.35952,-0.1729 5.9689,-0.32804 6.86992,-1.74877c0.34566,-0.54506 0.50081,-1.53317 0.26359,-1.67905c-0.05159,-0.03164 -0.30951,0.05338 -0.57323,0.18885c-0.91684,0.47084 -1.99307,0.58687 -6.68854,0.72066zM86.50012,246.08899c0.1885,-0.00476 0.45503,-0.05699 0.59212,-0.11591c0.13714,-0.05892 0.25716,-0.11102 0.26655,-0.11591c0.00939,-0.00476 0.54995,0.62237 1.20088,1.39372c1.54127,1.82583 4.74821,4.95108 6.63682,6.46791c3.05424,2.45284 6.66718,4.8353 9.51199,6.27263l1.38523,0.69982l1.1583,-0.58057c3.5297,-1.76936 7.42527,-4.38531 10.57047,-7.09826c2.05494,-1.77257 5.84952,-5.73014 6.51332,-6.79299c0.08465,-0.13546 0.27234,-0.24635 0.41693,-0.24635c0.37808,0 1.04831,0.25253 1.04831,0.39494c0,0.26204 -2.52243,3.1376 -4.41927,5.03804c-2.86938,2.87466 -5.5494,5.04461 -8.79532,7.12116c-2.88726,1.84731 -5.98344,3.52778 -6.4993,3.52778c-0.61028,0 -5.40224,-2.76505 -8.1835,-4.72209c-2.75026,-1.93518 -4.9094,-3.7565 -7.39632,-6.23918c-2.09662,-2.09289 -4.35002,-4.62742 -4.35002,-4.89268c0,-0.05673 0.15433,-0.10729 0.34282,-0.11205zM145.93076,217.31232v0.49029l-0.00066,1.47155l-0.00044,0.49073l-0.00044,0.49051l-0.00199,1.47155l-0.00088,0.49073l-0.00221,0.98103l-0.00111,0.49073l-0.00133,0.49051l-0.00155,0.49073l-0.00155,0.49051l-0.00354,0.98147l-0.00199,0.49073l-0.00221,0.49051l-0.00221,0.49073l-0.00266,0.49073l-0.00266,0.49096l-0.00288,0.49073l-0.0031,0.49073l-0.00332,0.49096l-0.00354,0.49096l-0.00377,0.49073l-0.00421,0.49118l-0.00443,0.49096l-0.00465,0.49096l-0.0051,0.49118l-0.00532,0.49118l-0.00598,0.4914l-0.0062,0.4914l-0.00687,0.49162l-0.00753,0.49162l-0.00797,0.49184l-0.00886,0.49206l-0.00975,0.49229l-0.01086,0.49273l-0.01219,0.4934l-0.01374,0.49406l-0.01573,0.49495l-0.01906,0.49694l-0.02326,0.50026l-0.0319,0.50802c-0.00103,0.01802 -0.00259,0.03604 -0.00465,0.05406l-0.05317,0.48719c-0.0031,0.02895 -0.00731,0.05768 -0.01263,0.08618l-0.07156,0.38683l-0.09416,0.48985l-0.09837,0.49029l-0.10258,0.48919l-0.10657,0.48874l-0.11056,0.48764l-0.11454,0.48675l-0.11853,0.48586l-0.12274,0.48498l-0.12695,0.48387l-0.13094,0.48276l-0.13492,0.48188l-0.13914,0.48055l-0.14312,0.47944l-0.14733,0.47833l-0.15132,0.47678l-0.15531,0.47567l-0.15952,0.47434l-0.16373,0.47301l-0.16749,0.47168l-0.17192,0.47013l-0.17569,0.46858l-0.1799,0.46703l-0.18389,0.46548l-0.18788,0.46393l-0.19186,0.46238l-0.19585,0.46061l-0.19984,0.45884l-0.20383,0.45706l-0.20759,0.45551l-0.2118,0.45352l-0.21557,0.45152l-0.21934,0.44975l-0.22332,0.44798l-0.22709,0.44598l-0.0339,0.06602l-0.22953,0.43978l-0.23529,0.44177l-0.23906,0.43978l-0.24282,0.43779l-0.24681,0.43557l-0.2508,0.43335l-0.25434,0.43136l-0.25833,0.42892l-0.26232,0.42671l-0.26608,0.42449l-0.26985,0.42206l-0.27384,0.41962l-0.27738,0.41718l-0.28137,0.41452l-0.28513,0.41208l-0.28891,0.40943l-0.29289,0.40677l-0.29644,0.40411l-0.3002,0.40145l-0.30397,0.39857l-0.30751,0.39569l-0.31128,0.39303l-0.31505,0.38993l-0.31859,0.38705l-0.32214,0.38417l-0.32568,0.38107l-0.32922,0.37796l-0.33277,0.37487l-0.33631,0.37176l-0.33986,0.36866l-0.34296,0.36556l-0.34651,0.36224l-0.34983,0.35891l-0.35316,0.35581l-0.17879,0.17768l-0.35537,0.3485l-0.36002,0.34739l-0.36312,0.34451l-0.36623,0.34119l-0.36888,0.33809l-0.37198,0.33476l-0.37487,0.33166l-0.37796,0.32856l-0.38063,0.32502l-0.3835,0.32191l-0.38639,0.31837l-0.38905,0.31505l-0.39192,0.31172l-0.39458,0.30818l-0.39746,0.30463l-0.3999,0.30109l-0.40278,0.29777l-0.40544,0.294l-0.40788,0.29045l-0.41031,0.28691l-0.41319,0.28314l-0.41541,0.2796l-0.41785,0.27583l-0.4205,0.27206l-0.42272,0.2683l-0.42494,0.26475l-0.42737,0.26077l-0.42959,0.25722l-0.43181,0.25324l-0.43424,0.24969l-0.43601,0.2457l-0.43823,0.24171l-0.44044,0.23817l-0.44222,0.23418l-0.44443,0.23041l-0.44621,0.22665l-0.4482,0.22266l-0.44997,0.21889l-0.45175,0.2149l-0.45352,0.21114l-0.45529,0.20737l-0.45706,0.20339l-0.45861,0.19962l-0.46016,0.19585l-0.46171,0.19208l-0.46326,0.1881l-0.23639,0.09371l-0.47368,0.18034l-0.48453,0.17303c-0.00857,0.0031 -0.01713,0.00606 -0.0257,0.00886l-0.46548,0.1542c-0.0099,0.00325 -0.01979,0.00635 -0.02969,0.0093l-0.46924,0.14179c-0.01152,0.00354 -0.02304,0.00687 -0.03456,0.00997l-0.47346,0.12739c-0.01344,0.00354 -0.02695,0.00694 -0.04055,0.01019l-0.47766,0.11056c-0.01595,0.00369 -0.03205,0.00701 -0.0483,0.00997l-0.48188,0.09062c-0.01935,0.00354 -0.03877,0.00665 -0.05827,0.0093l-0.48586,0.06624c-0.02378,0.00325 -0.04764,0.00576 -0.07156,0.00753l-0.48896,0.03633c-0.0192,0.00148 -0.0384,0.00244 -0.0576,0.00288l-0.19563,0.00488c-0.01817,0.00044 -0.03641,0.00052 -0.05473,0.00022l-0.49007,-0.01041c-0.02378,-0.00059 -0.04756,-0.00185 -0.07134,-0.00377l-0.48874,-0.0401c-0.02127,-0.00177 -0.04246,-0.00406 -0.06359,-0.00687l-0.48564,-0.06669c-0.0189,-0.00251 -0.03774,-0.00554 -0.0565,-0.00908l-0.48188,-0.09017c-0.01684,-0.0031 -0.0336,-0.00657 -0.05029,-0.01041l-0.47744,-0.111c-0.01492,-0.0034 -0.02976,-0.00709 -0.04453,-0.01108l-0.47279,-0.12961c-0.01329,-0.00354 -0.02651,-0.00739 -0.03966,-0.01152l-0.46814,-0.146c-0.01181,-0.00369 -0.02363,-0.00753 -0.03545,-0.01152l-0.46326,-0.16063c-0.01063,-0.00369 -0.02119,-0.00753 -0.03168,-0.01152l-0.45839,-0.17392l-0.36401,-0.14467l-0.46215,-0.1881l-0.46171,-0.19231l-0.45994,-0.1963l-0.45839,-0.19984l-0.45684,-0.20361l-0.45484,-0.20737l-0.4533,-0.21114l-0.4513,-0.21468l-0.44975,-0.21845l-0.44775,-0.22177l-0.44598,-0.22554l-0.44421,-0.22908l-0.44222,-0.23241l-0.44044,-0.23595l-0.43845,-0.23928l-0.43646,-0.2426l-0.43468,-0.24615l-0.43269,-0.24924l-0.4307,-0.25257l-0.4287,-0.25567l-0.05073,-0.03057l-0.42516,-0.26033l-0.42715,-0.2683l-0.42361,-0.27317l-0.42006,-0.2776l-0.41652,-0.28182l-0.41341,-0.2858l-0.41009,-0.28979l-0.40699,-0.29333l-0.40389,-0.29688l-0.40079,-0.30042l-0.39802,-0.30353l-0.39516,-0.30685l-0.39239,-0.30973l-0.38971,-0.31261l-0.38707,-0.31527l-0.38452,-0.31815l-0.38204,-0.32058l-0.37961,-0.32324l-0.08317,-0.07134l-0.37445,-0.32413l-0.37467,-0.32878l-0.3725,-0.33166l-0.37021,-0.33476l-0.36786,-0.33765l-0.36538,-0.34052l-0.36286,-0.34385l-0.36018,-0.34695l-0.35743,-0.35027l-0.35453,-0.3536l-0.35151,-0.35714l-0.34839,-0.36069l-0.34509,-0.36445l-0.34165,-0.368l-0.33809,-0.37198l-0.33434,-0.37597l-0.33038,-0.37996l-0.32628,-0.38417l-0.21016,-0.25213l-0.31704,-0.38683l-0.3144,-0.3917l-0.31037,-0.39481l-0.30636,-0.39791l-0.30233,-0.40079l-0.29834,-0.40345l-0.29433,-0.40655l-0.29034,-0.40899l-0.28635,-0.41186l-0.28237,-0.41452l-0.27843,-0.41696l-0.2745,-0.4194l-0.27056,-0.42183l-0.26666,-0.42427l-0.26276,-0.42626l-0.2589,-0.4287l-0.25507,-0.43092l-0.25124,-0.43313l-0.24745,-0.4349l-0.24369,-0.43712l-0.23994,-0.43889l-0.23622,-0.44089l-0.23254,-0.44266l-0.22886,-0.44443l-0.22527,-0.44598l-0.22164,-0.44798l-0.2181,-0.44931l-0.21455,-0.45108l-0.21105,-0.45263l-0.20757,-0.45396l-0.20414,-0.45551l-0.00494,-0.01108l-0.19898,-0.4533l-0.19729,-0.45839l-0.19382,-0.46016l-0.19031,-0.46193l-0.18673,-0.46348l-0.18307,-0.46504l-0.1793,-0.46659l-0.17549,-0.46836l-0.17159,-0.46991l-0.16761,-0.47146l-0.16357,-0.47324l-0.15941,-0.47456l-0.15517,-0.47633l-0.15086,-0.47789l-0.14647,-0.47944l-0.14197,-0.48099l-0.13739,-0.48254l-0.13272,-0.48387l-0.12796,-0.48542l-0.1231,-0.48697l-0.11815,-0.4883l-0.11311,-0.48963l-0.10797,-0.49118l-0.10274,-0.49229l-0.09741,-0.49362l-0.09199,-0.49495l-0.08647,-0.49605l-0.08086,-0.49716l-0.07515,-0.49827l-0.06934,-0.49938l-0.06344,-0.50026c-0.00134,-0.01049 -0.00253,-0.02105 -0.00358,-0.03168l-0.0217,-0.21867c-0.00127,-0.0127 -0.00232,-0.02548 -0.00317,-0.03833l-0.0325,-0.48919l-0.02446,-0.51222l-0.01894,-0.50137l-0.0157,-0.49716l-0.01348,-0.49539l-0.01182,-0.49406l-0.01052,-0.49317l-0.00946,-0.49273l-0.00859,-0.49229l-0.00784,-0.49206l-0.0072,-0.49184l-0.00663,-0.49162l-0.00614,-0.4914l-0.00569,-0.4914l-0.00529,-0.4914l-0.00492,-0.49118l-0.00459,-0.49096l-0.00429,-0.49118l-0.00401,-0.49096l-0.00375,-0.49096l-0.0035,-0.49096l-0.00328,-0.49073l-0.00307,-0.49096l-0.00287,-0.49073l-0.00269,-0.49073l-0.00251,-0.49073l-0.00234,-0.49073l-0.00219,-0.49073l-0.00204,-0.49073l-0.0019,-0.49051l-0.00177,-0.49073l-0.00164,-0.49073l-0.00152,-0.49051l-0.0014,-0.49073l-0.00129,-0.49051l-0.00118,-0.49051l-0.00108,-0.49073l-0.00098,-0.49051l-0.00088,-0.49051l-0.00079,-0.49051l-0.00071,-0.49051l-0.00062,-0.49051l-0.00054,-0.49073l-0.00046,-0.49051l-0.00039,-0.49051l-0.00031,-0.49051l-0.00016,-0.33144l-0.00015,-0.49051l-0.00003,-0.49073l0.00009,-0.49051l0.00021,-0.49073l0.00034,-0.49051l0.00047,-0.49073l0.0006,-0.49073l0.00074,-0.49051l0.00089,-0.49073l0.00104,-0.49073l0.00121,-0.49073l0.00137,-0.49073l0.00155,-0.49073l0.00173,-0.49073l0.00192,-0.49073l0.00212,-0.49092l0.00233,-0.49082l0.00256,-0.49087l0.0028,-0.49089l0.00304,-0.49094l0.00331,-0.49096l0.00359,-0.49098l0.00389,-0.49105l0.00421,-0.49109l0.00455,-0.49114l0.00493,-0.4912l0.00532,-0.49125l0.00575,-0.49136l0.00623,-0.4914l0.00674,-0.49153l0.00731,-0.49164l0.00794,-0.49178l0.00864,-0.49193l0.00943,-0.49213l0.01034,-0.49238l0.01138,-0.49269l0.0126,-0.49306l0.01405,-0.49357l0.01583,-0.49428l0.01807,-0.49526l0.02102,-0.49676l0.02516,-0.49922l0.03158,-0.50387c0.00055,-0.00882 0.00121,-0.01763 0.00196,-0.02645l0.04176,-0.48852c0.00236,-0.02765 0.0057,-0.05517 0.01001,-0.08257l0.07606,-0.48391c0.00928,-0.05904 0.02297,-0.11702 0.04107,-0.17396l0.14719,-0.463c0.00708,-0.02227 0.01481,-0.04431 0.0232,-0.06611l0.17605,-0.45757c0.00886,-0.02303 0.01844,-0.04576 0.02873,-0.06819l0.20443,-0.4456c0.01071,-0.02334 0.02217,-0.0463 0.03438,-0.0689l0.23311,-0.43127c0.01256,-0.02323 0.02588,-0.04602 0.03997,-0.06835l0.26155,-0.41465c0.0143,-0.02266 0.02935,-0.04481 0.04516,-0.06646l0.28921,-0.39583c0.01583,-0.02167 0.03237,-0.04276 0.04964,-0.0633l0.31555,-0.37517c0.01705,-0.02027 0.03475,-0.03993 0.05312,-0.059l0.34011,-0.35309c0.0179,-0.01858 0.03639,-0.03655 0.05545,-0.0539l0.36257,-0.33c0.01834,-0.01671 0.03721,-0.03282 0.05658,-0.04834l0.38268,-0.30645c0.01843,-0.01477 0.0373,-0.02897 0.05661,-0.0426l0.40041,-0.28287c0.01821,-0.01288 0.03678,-0.02522 0.0557,-0.03702l0.41583,-0.25972c0.01772,-0.01107 0.03573,-0.02166 0.05401,-0.03176l0.42905,-0.23724c0.02489,-0.01376 0.05025,-0.02661 0.07608,-0.03854l0.20498,-0.09467c0.03167,-0.01463 0.06392,-0.02782 0.09677,-0.03958l0.46147,-0.16527c0.02304,-0.00825 0.04631,-0.01577 0.06981,-0.02257l0.471,-0.13624c0.01319,-0.00382 0.02643,-0.0074 0.03972,-0.01075l0.4755,-0.11971c0.00879,-0.00221 0.0176,-0.00432 0.02645,-0.00634l0.47813,-0.1087l0.49909,-0.1049l0.4959,-0.09756l0.49388,-0.0919l0.49251,-0.08736l0.49158,-0.08361l0.49089,-0.08044l0.49038,-0.07772l0.48998,-0.07535l0.48972,-0.07325l0.48945,-0.07139l0.4893,-0.06971l0.48914,-0.06819l0.48901,-0.06681l0.48894,-0.06554l0.48885,-0.06437l0.48879,-0.0633l0.48872,-0.06229l0.4887,-0.06136l0.48868,-0.06049l0.48863,-0.05968l0.48861,-0.05891l0.48859,-0.05818l0.48859,-0.0575l0.48857,-0.05686l0.26987,-0.03112l0.48857,-0.05575l0.48912,-0.05503l0.48932,-0.05422l0.48952,-0.05337l0.48972,-0.05247l0.49005,-0.05152l0.49007,-0.05051l0.49051,-0.04944l0.49073,-0.04829l0.49096,-0.04707l0.4914,-0.04576l0.49184,-0.04436l0.49229,-0.04283l0.49251,-0.04118l0.49317,-0.03939l0.49362,-0.03742l0.49451,-0.03525l0.49495,-0.03284l0.49605,-0.03016l0.49672,-0.02713l0.23374,-0.01159l0.49517,-0.0223l0.49628,-0.01969l0.49539,-0.01741l0.49451,-0.01546l0.49428,-0.01376l0.49362,-0.01227l0.4934,-0.01094l0.49295,-0.00976l0.49295,-0.00869l0.49251,-0.00771l0.49251,-0.00682l0.49229,-0.006l0.49206,-0.00524l0.49184,-0.00454l0.49206,-0.0039l0.49162,-0.00329l0.49184,-0.00272l0.4914,-0.00218l0.49162,-0.00168l0.4914,-0.00121l0.4914,-0.00075l0.4914,-0.00033l0.4914,0.00008l0.47833,0.00048l0.4914,0.00096l0.4914,0.00146l0.49162,0.00199l0.49162,0.00254l0.49184,0.00312l0.49162,0.00373l0.49206,0.00437l0.49184,0.00506l0.49206,0.00578l0.49206,0.00655l0.49229,0.00737l0.49229,0.00825l0.49251,0.00919l0.49273,0.0102l0.49273,0.0113l0.49295,0.01248l0.4934,0.01378l0.4934,0.01519l0.49384,0.01676l0.49406,0.01849l0.49451,0.02043l0.49495,0.02262l0.49561,0.02511l0.49628,0.028l0.23418,0.01431l0.49451,0.03247l0.49561,0.03531l0.49473,0.03772l0.49406,0.0399l0.4934,0.04188l0.49273,0.04368l0.49229,0.04533l0.49184,0.04685l0.4914,0.04826l0.49096,0.04956l0.49073,0.05078l0.49029,0.05192l0.49007,0.05299l0.48985,0.05399l0.48963,0.05494l0.48941,0.05583l0.48919,0.05668l0.48874,0.05748l0.48874,0.05825l0.48874,0.05897l0.4883,0.05967l0.4883,0.06032l0.48808,0.06096l0.46304,0.05837l0.48764,0.06197l0.48786,0.06254l0.48764,0.06317l0.48786,0.06385l0.48786,0.06461l0.48786,0.06545l0.48808,0.06638l0.48808,0.06744l0.48852,0.06865l0.48852,0.07004l0.48874,0.07168l0.48941,0.07364l0.48985,0.07604l0.49073,0.07908l0.49229,0.08309l0.49473,0.08876l0.49915,0.09762c0.01093,0.00211 0.02171,0.00438 0.03235,0.00679l0.47833,0.10765c0.01078,0.00242 0.02149,0.00499 0.03213,0.0077l0.10811,0.02752c0.01078,0.00276 0.02157,0.00568 0.03235,0.00875l0.47146,0.13451c0.01846,0.00528 0.03685,0.011 0.05517,0.01718l0.46437,0.15742c0.01935,0.00661 0.03862,0.01372 0.05782,0.02133l0.45551,0.18152c0.02024,0.0081 0.04032,0.01677 0.06026,0.026l0.44443,0.20661c0.02097,0.00975 0.04165,0.0201 0.06204,0.03107l0.43181,0.23242c0.02127,0.01149 0.04224,0.02362 0.06292,0.03641l0.41652,0.25859c0.02127,0.01325 0.04217,0.02716 0.0627,0.04174l0.39901,0.28469c0.02097,0.01495 0.04143,0.03057 0.06137,0.04686l0.37952,0.31021c0.02024,0.0165 0.03988,0.03364 0.05893,0.05142l0.35825,0.3347c0.01906,0.01778 0.03744,0.03616 0.05517,0.05514l0.33521,0.35769c0.01757,0.01873 0.03449,0.03801 0.05073,0.05785l0.31128,0.37881c0.01581,0.01932 0.03102,0.03912 0.04564,0.0594l0.28647,0.39784c0.00709,0.00985 0.01403,0.01981 0.02083,0.02989l0.20228,0.30005l0.27406,0.40657c0.00827,0.01226 0.01632,0.02466 0.02415,0.03722l0.17259,0.27805c0.01521,0.02452 0.02954,0.04956 0.04298,0.07513l0.15176,0.29008c0.01344,0.02583 0.02599,0.05212 0.03766,0.07887l0.12983,0.30049c0.01152,0.02697 0.02208,0.05432 0.03168,0.08206l0.10701,0.30931c0.00945,0.02736 0.01795,0.05501 0.02548,0.08297l0.08397,0.31638c0.00739,0.02794 0.01374,0.05613 0.01906,0.08455l0.06048,0.32174c0.00546,0.0288 0.00982,0.05776 0.01307,0.08687l0.03633,0.32533c0.00325,0.02914 0.00539,0.05837 0.00643,0.08767l0.01197,0.32712c0.00059,0.01436 0.00088,0.02871 0.00088,0.04307v21.80176zM143.575,195.21736l-0.00953,-0.26172l-0.02659,-0.23801l-0.04431,-0.23578l-0.06159,-0.23256l-0.07843,-0.22669l-0.09504,-0.21994l-0.11144,-0.21296l-0.13803,-0.22246l-0.26187,-0.38818l-0.19186,-0.28487l-0.25412,-0.35271l-0.26276,-0.32008l-0.28248,-0.30116l-0.30109,-0.28133l-0.31926,-0.26101l-0.3372,-0.24041l-0.3536,-0.21953l-0.3691,-0.19873l-0.38328,-0.17815l-0.39614,-0.15792l-0.40788,-0.13825l-0.42759,-0.12199l-0.07577,-0.01932l-0.44621,-0.10043l-0.44687,-0.0876l-0.47057,-0.08455l-0.47456,-0.08022l-0.47744,-0.07694l-0.47922,-0.0744l-0.48055,-0.07233l-0.48121,-0.07059l-0.48232,-0.06915l-0.48276,-0.06789l-0.4832,-0.06678l-0.48364,-0.0658l-0.48409,-0.06494l-0.48431,-0.06414l-0.48475,-0.06343l-0.48475,-0.06281l-0.48498,-0.06219l-0.4852,-0.06166l-0.46061,-0.05804l-0.48498,-0.06057l-0.48498,-0.05993l-0.4852,-0.05925l-0.48498,-0.05855l-0.48498,-0.05781l-0.48498,-0.05703l-0.4852,-0.05621l-0.48498,-0.05534l-0.48498,-0.05443l-0.48498,-0.05346l-0.48475,-0.05244l-0.48498,-0.05134l-0.48475,-0.05018l-0.48453,-0.04894l-0.48475,-0.0476l-0.48431,-0.04616l-0.48431,-0.04461l-0.48409,-0.04292l-0.48364,-0.04108l-0.48364,-0.03908l-0.48298,-0.03687l-0.48254,-0.03441l-0.48409,-0.0318l-0.2231,-0.01366l-0.48276,-0.02728l-0.48387,-0.02455l-0.48453,-0.02217l-0.48542,-0.02007l-0.48586,-0.0182l-0.48631,-0.01652l-0.48675,-0.015l-0.48719,-0.01361l-0.48742,-0.01235l-0.48742,-0.01119l-0.48786,-0.01011l-0.48808,-0.00911l-0.48808,-0.00818l-0.4883,-0.00732l-0.48852,-0.0065l-0.48852,-0.00574l-0.48874,-0.00503l-0.48874,-0.00435l-0.48896,-0.00371l-0.48896,-0.0031l-0.48896,-0.00253l-0.48896,-0.00198l-0.48919,-0.00146l-0.48919,-0.00096l-0.47633,-0.00048l-0.48941,-0.00008l-0.48919,0.00033l-0.48941,0.00075l-0.48919,0.0012l-0.48896,0.00167l-0.48919,0.00217l-0.48896,0.0027l-0.48874,0.00326l-0.48874,0.00387l-0.48874,0.00451l-0.48852,0.0052l-0.4883,0.00595l-0.48808,0.00676l-0.48808,0.00763l-0.48764,0.00859l-0.48742,0.00964l-0.48719,0.0108l-0.48653,0.01208l-0.48631,0.01352l-0.48542,0.01515l-0.48475,0.01701l-0.48364,0.01916l-0.48453,0.02179l-0.22177,0.01099l-0.48232,0.02629l-0.48298,0.02933l-0.48342,0.03205l-0.48387,0.03448l-0.48431,0.03667l-0.48431,0.03867l-0.48475,0.0405l-0.48475,0.04218l-0.48498,0.04373l-0.48498,0.04516l-0.4852,0.0465l-0.4852,0.04774l-0.4852,0.04891l-0.4852,0.05l-0.48544,0.05103l-0.48538,0.052l-0.48538,0.05292l-0.4854,0.05379l-0.4854,0.05461l-0.48577,0.05544l-0.26744,0.03084l-0.48553,0.0565l-0.48538,0.05712l-0.4852,0.05778l-0.485,0.05847l-0.48482,0.0592l-0.48458,0.05998l-0.48433,0.06081l-0.48407,0.06169l-0.48376,0.06265l-0.48342,0.06365l-0.48305,0.06474l-0.48263,0.06591l-0.48214,0.06722l-0.48159,0.06859l-0.48094,0.07012l-0.48017,0.07181l-0.47931,0.07369l-0.4782,0.07575l-0.47687,0.07812l-0.47523,0.08075l-0.4731,0.08383l-0.47026,0.08738l-0.46634,0.09157l-0.46067,0.09649l-0.46488,0.1057l-0.44233,0.11135l-0.41594,0.12033l-0.37768,0.13523l-0.11873,0.05486l-0.3643,0.20143l-0.36088,0.22538l-0.34416,0.24313l-0.32595,0.26103l-0.3064,0.27889l-0.28571,0.29661l-0.26409,0.31401l-0.24176,0.33089l-0.21896,0.34713l-0.19596,0.36253l-0.17292,0.37695l-0.15017,0.39031l-0.10943,0.34418l-0.05567,0.35424l-0.03711,0.43398l-0.02909,0.46152l-0.02426,0.48019l-0.02047,0.48303l-0.01772,0.48475l-0.01558,0.48591l-0.01387,0.48668l-0.01245,0.4873l-0.01128,0.48772l-0.01026,0.48808l-0.00937,0.48834l-0.00858,0.48859l-0.00791,0.48877l-0.00727,0.48894l-0.00671,0.48905l-0.00618,0.48916l-0.00574,0.48927l-0.00532,0.48934l-0.0049,0.48943l-0.00454,0.48949l-0.00419,0.48954l-0.00388,0.4896l-0.00359,0.48965l-0.0033,0.48969l-0.00303,0.48972l-0.00279,0.48976l-0.00255,0.48981l-0.00232,0.48981l-0.00213,0.48981l-0.00193,0.48985l-0.00173,0.49007l-0.00153,0.48985l-0.00138,0.48985l-0.0012,0.49007l-0.00104,0.48985l-0.0009,0.49007l-0.00074,0.48985l-0.0006,0.49007l-0.00047,0.49007l-0.00034,0.49007l-0.00021,0.49007l-0.00009,0.48985l0.00003,0.49007l0.00015,0.49029l0.00016,0.33122l0.00031,0.49007l0.00038,0.49007l0.00046,0.49029l0.00054,0.49007l0.00062,0.49007l0.00071,0.49029l0.0008,0.49007l0.00088,0.49007l0.00097,0.49007l0.00108,0.49007l0.00117,0.49007l0.00129,0.49007l0.0014,0.49007l0.00153,0.49007l0.00164,0.49007l0.00175,0.48985l0.0019,0.49007l0.00204,0.49007l0.00219,0.48985l0.00235,0.48985l0.00251,0.49007l0.00268,0.48985l0.00286,0.48985l0.00306,0.48985l0.00328,0.48963l0.0035,0.48985l0.00375,0.48963l0.00399,0.48963l0.00428,0.48963l0.00456,0.48963l0.00492,0.48941l0.00525,0.48941l0.00567,0.48919l0.00609,0.48896l0.0066,0.48896l0.00716,0.48874l0.00778,0.48852l0.00853,0.4883l0.00935,0.48764l0.01039,0.48719l0.01163,0.48631l0.01316,0.4852l0.0152,0.48276l0.01797,0.47877l0.02193,0.46725l0.03122,0.47013l0.01826,0.18389l0.05776,0.45662l0.06538,0.47213l0.07094,0.47146l0.07641,0.4708l0.0818,0.46991l0.08709,0.46947l0.0923,0.46836l0.09746,0.4677l0.10249,0.46681l0.10748,0.4657l0.11237,0.46504l0.11716,0.46393l0.12188,0.46282l0.12653,0.46171l0.13109,0.46083l0.13557,0.4595l0.13995,0.45861l0.14427,0.45728l0.14853,0.45617l0.15267,0.45484l0.15675,0.45374l0.16078,0.45263l0.1647,0.4513l0.16855,0.44997l0.17234,0.44886l0.17607,0.44731l0.1797,0.44621l0.18327,0.4451l0.18679,0.44355l0.19025,0.44244l0.19525,0.44466l0.00146,0.00332l0.19689,0.43934l0.20011,0.43801l0.20336,0.43624l0.20666,0.43446l0.20996,0.43291l0.21329,0.43114l0.21666,0.42937l0.22005,0.42737l0.22346,0.4256l0.22691,0.42361l0.23035,0.42161l0.23385,0.4194l0.23735,0.41763l0.24087,0.41519l0.24441,0.41297l0.248,0.41098l0.25157,0.40832l0.25518,0.4061l0.25879,0.40367l0.26243,0.40123l0.26608,0.39879l0.26974,0.39591l0.27342,0.39348l0.27712,0.39059l0.2808,0.38794l0.2845,0.38505l0.28819,0.38218l0.29192,0.3793l0.29562,0.37619l0.29934,0.37309l0.30441,0.37176l0.19616,0.23551l0.30847,0.36334l0.31301,0.36024l0.31728,0.35692l0.32143,0.35382l0.32539,0.35072l0.3292,0.34761l0.33282,0.34474l0.33634,0.34185l0.33968,0.3392l0.34292,0.33609l0.34602,0.33343l0.34899,0.33078l0.35187,0.32812l0.35462,0.32546l0.35727,0.32302l0.35982,0.32058l0.36232,0.31815l0.36702,0.31771l0.07584,0.06513l0.36713,0.31261l0.36908,0.30973l0.3711,0.30707l0.37311,0.30419l0.37531,0.30109l0.3773,0.29777l0.3793,0.29466l0.38173,0.29134l0.38395,0.2878l0.38616,0.28403l0.38838,0.28004l0.39082,0.27628l0.39325,0.27206l0.39547,0.26786l0.39813,0.26298l0.40057,0.25855l0.403,0.25346l0.4112,0.2519l0.04187,0.02504l0.41341,0.24681l0.41519,0.24348l0.41696,0.24038l0.41895,0.23706l0.4205,0.23396l0.42228,0.23064l0.42405,0.22709l0.42582,0.22399l0.42737,0.22044l0.42915,0.2169l0.43092,0.2138l0.43247,0.21003l0.43402,0.20648l0.43579,0.20316l0.43734,0.1994l0.43889,0.19585l0.44044,0.19208l0.44222,0.18854l0.44355,0.18499l0.44598,0.18145l0.32745,0.13071l0.44288,0.16794l0.42959,0.14888l0.43048,0.13426l0.43092,0.11787l0.43025,0.09992l0.42892,0.0802l0.4256,0.05849l0.42095,0.03456l0.42715,0.00886l0.13936,-0.00354l0.42427,-0.03146l0.42095,-0.05738l0.42848,-0.08042l0.43335,-0.10014l0.43601,-0.11742l0.43734,-0.13205l0.43779,-0.14512l0.42626,-0.15176l0.44288,-0.16838l0.21823,-0.0864l0.44532,-0.18079l0.44377,-0.18433l0.44222,-0.1881l0.44066,-0.19186l0.43889,-0.19519l0.43734,-0.19917l0.43557,-0.20272l0.43357,-0.20626l0.43203,-0.21003l0.43003,-0.21357l0.42826,-0.21734l0.42626,-0.22089l0.42449,-0.22466l0.42228,-0.2282l0.4205,-0.23197l0.41829,-0.23551l0.41608,-0.23928l0.41408,-0.24282l0.41186,-0.24637l0.40987,-0.24991l0.40743,-0.25368l0.40522,-0.25722l0.40278,-0.26077l0.40079,-0.26409l0.39813,-0.26786l0.39591,-0.2714l0.39348,-0.27473l0.39082,-0.27827l0.3886,-0.28182l0.38594,-0.28513l0.3835,-0.28868l0.38085,-0.292l0.37841,-0.29511l0.37575,-0.29865l0.37309,-0.30198l0.37043,-0.3053l0.36778,-0.30862l0.36512,-0.3115l0.36246,-0.31505l0.35958,-0.31815l0.35692,-0.32103l0.35404,-0.32435l0.35138,-0.32745l0.3485,-0.33033l0.34562,-0.33343l0.34474,-0.33809l0.16749,-0.16638l0.33787,-0.34008l0.33476,-0.3434l0.33144,-0.34629l0.32812,-0.34938l0.3248,-0.35249l0.32169,-0.35537l0.31837,-0.35847l0.31482,-0.36135l0.3115,-0.36445l0.30818,-0.36711l0.30463,-0.36999l0.30131,-0.37287l0.29777,-0.37575l0.29444,-0.37841l0.29068,-0.38129l0.28713,-0.38373l0.28381,-0.38661l0.28004,-0.38927l0.27672,-0.3917l0.27295,-0.39414l0.26941,-0.3968l0.26564,-0.39946l0.26232,-0.40167l0.25833,-0.40411l0.25501,-0.40632l0.25124,-0.40876l0.2477,-0.41098l0.24393,-0.41341l0.24038,-0.41541l0.23662,-0.41763l0.23307,-0.41962l0.22953,-0.42183l0.22576,-0.42383l0.22421,-0.42959l0.0288,-0.05583l0.21801,-0.42781l0.21424,-0.42981l0.21048,-0.43158l0.20693,-0.43335l0.20316,-0.43513l0.1994,-0.43668l0.19563,-0.43867l0.19186,-0.44l0.18788,-0.44199l0.18411,-0.44332l0.18034,-0.4451l0.17658,-0.44643l0.17259,-0.4482l0.1686,-0.44953l0.16483,-0.45086l0.16107,-0.45263l0.15708,-0.45374l0.15309,-0.45507l0.14933,-0.45639l0.14534,-0.45795l0.14135,-0.45884l0.13758,-0.46038l0.1336,-0.46127l0.12961,-0.4626l0.12584,-0.46348l0.12185,-0.46482l0.11787,-0.4657l0.1141,-0.46681l0.11033,-0.4677l0.10612,-0.4688l0.10258,-0.46947l0.09859,-0.47057l0.0946,-0.47124l0.09106,-0.47301l0.06359,-0.34385l0.04564,-0.41718l0.02792,-0.44332l0.0226,-0.47944l0.01839,-0.48298l0.01551,-0.48498l0.01352,-0.48631l0.01197,-0.48719l0.01086,-0.48764l0.00975,-0.48808l0.00864,-0.48852l0.0082,-0.48874l0.00731,-0.48874l0.00687,-0.48919l0.0062,-0.48919l0.00576,-0.48919l0.00554,-0.48941l0.0051,-0.48963l0.00465,-0.48941l0.00842,-0.97926l0.00377,-0.48985l0.00354,-0.48963l0.00332,-0.48985l0.0031,-0.48985l0.00288,-0.48985l0.00532,-0.9797l0.00221,-0.48985l0.00221,-0.49007l0.00199,-0.49007l0.00177,-0.48985l0.00177,-0.49007l0.00155,-0.49007l0.00155,-0.48985l0.00133,-0.49007l0.00221,-0.98014l0.00177,-0.98014l0.00088,-0.49029l0.00133,-0.98014l0.00088,-0.98014l0.00022,-0.49029l0.00044,-0.98014z"
                      data-paper-data="{&quot;isPathIcon&quot;:true}"></path>
            </g>
        </g>
    </g>
    <g class="watermark-group" style="opacity:0.10; stroke: white; stroke-width: 2; stroke-opacity: 0.7;">
        <path class="watermark-path"
              d="M129.52,370.3a11.88,11.88,0,0,1,2.58,5.58,12,12,0,0,1,.11,3,11.81,11.81,0,0,1-.64,2.93,12.34,12.34,0,0,1-1.41,2.72,11.65,11.65,0,0,1-2.13,2.32,12,12,0,0,1-2.64,1.69,13,13,0,0,1-2.91.9,12.47,12.47,0,0,1-3,.12,12.17,12.17,0,0,1-2.93-.64,11.8,11.8,0,0,1-2.72-1.38,12.19,12.19,0,0,1-4-4.79,11.85,11.85,0,0,1-.89-2.92,12.14,12.14,0,0,1-.13-3,11.54,11.54,0,0,1,.64-2.92,11.67,11.67,0,0,1,3.5-5,11.44,11.44,0,0,1,2.67-1.69,11.64,11.64,0,0,1,2.92-.91,10.71,10.71,0,0,1,3-.12,11.68,11.68,0,0,1,5.66,2,11.7,11.7,0,0,1,2.34,2.12m-1.4,8.76a13,13,0,0,1-1.22,2.32,9.68,9.68,0,0,1-1.81,2,7.44,7.44,0,0,1-2.38,1.37,6.17,6.17,0,0,1-5.11-.46,8.73,8.73,0,0,1-3.85-4.58,6.69,6.69,0,0,1-.34-2.66,6.09,6.09,0,0,1,.77-2.47,7.15,7.15,0,0,1,1.75-2.11,9.58,9.58,0,0,1,1.09-.81,8.23,8.23,0,0,1,1.12-.63,8.14,8.14,0,0,1,1.19-.46,12.71,12.71,0,0,1,1.32-.37l2,2.38a12.83,12.83,0,0,0-1.56.17,7.86,7.86,0,0,0-1.23.32,4.5,4.5,0,0,0-1,.49,6.41,6.41,0,0,0-.93.67,4.49,4.49,0,0,0-1.15,1.39,3.87,3.87,0,0,0-.45,1.58,4.12,4.12,0,0,0,.26,1.63,6.11,6.11,0,0,0,2.36,2.82,4.43,4.43,0,0,0,1.57.53,3.91,3.91,0,0,0,1.62-.17,4.71,4.71,0,0,0,1.57-.89,10.5,10.5,0,0,0,.83-.79,5.71,5.71,0,0,0,.65-.93,10.13,10.13,0,0,0,.54-1.14,12.24,12.24,0,0,0,.44-1.49l2,2.33m-14.46,4.55a8.86,8.86,0,0,0,2.78,2.22,9,9,0,0,0,3.29.94,9.15,9.15,0,0,0,3.39-.37,8.68,8.68,0,0,0,3.11-1.69,8.8,8.8,0,0,0,2.22-2.78,9.15,9.15,0,0,0,1-3.29,8.95,8.95,0,0,0-4.83-8.76,9,9,0,0,0-6.73-.57,9,9,0,0,0-5.33,4.47,8.94,8.94,0,0,0-.57,6.71,8.76,8.76,0,0,0,1.7,3.12"></path>
        <path class="watermark-path"
              d="M147,349c-.48.12-1.09.31-1.82.57a24.37,24.37,0,0,0-2.4,1A28.35,28.35,0,0,0,140,352a20.72,20.72,0,0,0-2.71,1.94c-.7.59-1.28,1.11-1.74,1.57a15.07,15.07,0,0,0-1.1,1.22,4.09,4.09,0,0,0-.59.92,2.32,2.32,0,0,0-.22.64,1.16,1.16,0,0,0,0,.47,1.83,1.83,0,0,0,.18.29,1.15,1.15,0,0,0,1,.37,5.54,5.54,0,0,0,1.51-.38q.87-.35,1.95-.9l2.26-1.18q1.2-.65,2.49-1.29c.87-.44,1.73-.83,2.59-1.17a18.94,18.94,0,0,1,2.6-.81,9.27,9.27,0,0,1,2.46-.29,6.25,6.25,0,0,1,2.24.49,5.12,5.12,0,0,1,1.89,1.47,6.35,6.35,0,0,1,1.41,2.61,6,6,0,0,1,.09,2.6,8.3,8.3,0,0,1-.9,2.52,17.79,17.79,0,0,1-1.62,2.37,23.92,23.92,0,0,1-2,2.15c-.72.67-1.41,1.29-2.09,1.87a33.79,33.79,0,0,1-5.33,3.7,32.29,32.29,0,0,1-4.91,2.28l-3.61-4.3a21.38,21.38,0,0,0,5.39-1.87,27.2,27.2,0,0,0,5.4-3.56,21.59,21.59,0,0,0,2.38-2.27,8.67,8.67,0,0,0,1.18-1.7,2.32,2.32,0,0,0,.27-1.19,1.34,1.34,0,0,0-.28-.74,1.21,1.21,0,0,0-1-.42,4.32,4.32,0,0,0-1.55.34,15.77,15.77,0,0,0-2,.88c-.72.37-1.48.77-2.27,1.21l-2.45,1.3c-.85.45-1.7.85-2.56,1.21a22.37,22.37,0,0,1-2.54.86,10,10,0,0,1-2.43.32,5.76,5.76,0,0,1-2.2-.45,5,5,0,0,1-1.89-1.45,6.12,6.12,0,0,1-1.31-2.41,6,6,0,0,1-.1-2.41,8.28,8.28,0,0,1,.81-2.38,14.06,14.06,0,0,1,1.49-2.24,22.37,22.37,0,0,1,1.85-2.05q1-1,2-1.77c.7-.59,1.44-1.15,2.23-1.7s1.62-1.06,2.44-1.53,1.63-.91,2.43-1.3,1.58-.75,2.3-1L147,349"></path>
        <path class="watermark-path"
              d="M186.76,337.57l-10.6-12.63,3.92,18.24-4.66,3.91-17.27-7,10.6,12.63-4.86,4.07-15.09-18,6.59-5.54,18.69,7.52-4.15-19.71,6.57-5.52,15.09,18-4.83,4.05"></path>
        <path class="watermark-path"
              d="M208.84,313.24l-10,8.42,1.16,4.82L194.56,331l-5.68-25.89,5.42-4.55,24.51,10.09-5.42,4.55-4.55-2m-11.23,3.45,6.57-5.52-8.83-3.87,2.26,9.39"></path>
        <path class="watermark-path"
              d="M227.49,281.38c-.48.12-1.09.31-1.82.57a24.37,24.37,0,0,0-2.4,1,26.11,26.11,0,0,0-2.7,1.47,20.72,20.72,0,0,0-2.71,1.94c-.7.59-1.28,1.11-1.74,1.57a13.39,13.39,0,0,0-1.1,1.22,4.29,4.29,0,0,0-.59.91,2.48,2.48,0,0,0-.22.65,1.16,1.16,0,0,0,0,.47,1.83,1.83,0,0,0,.18.29,1.15,1.15,0,0,0,1,.37,5.54,5.54,0,0,0,1.51-.38q.87-.34,2-.9l2.26-1.18q1.2-.64,2.49-1.29c.87-.44,1.73-.83,2.59-1.17a18.94,18.94,0,0,1,2.6-.81,9.27,9.27,0,0,1,2.46-.29,6.08,6.08,0,0,1,2.24.49,5.09,5.09,0,0,1,1.89,1.46,6.47,6.47,0,0,1,1.41,2.61,6.07,6.07,0,0,1,.09,2.61,8.3,8.3,0,0,1-.9,2.52,16.32,16.32,0,0,1-1.63,2.36,21.41,21.41,0,0,1-2,2.16c-.72.67-1.41,1.29-2.1,1.86a33.36,33.36,0,0,1-5.32,3.71,31.92,31.92,0,0,1-4.92,2.28l-3.6-4.3a21.38,21.38,0,0,0,5.39-1.87,27.2,27.2,0,0,0,5.4-3.56,21.59,21.59,0,0,0,2.38-2.27,8.67,8.67,0,0,0,1.18-1.7A2.32,2.32,0,0,0,231,293a1.34,1.34,0,0,0-.28-.74,1.21,1.21,0,0,0-1-.42,4.32,4.32,0,0,0-1.55.34,16.54,16.54,0,0,0-2,.88c-.71.37-1.47.77-2.26,1.21l-2.46,1.3c-.84.44-1.7.85-2.55,1.21a24.53,24.53,0,0,1-2.54.86A10,10,0,0,1,214,298a5.76,5.76,0,0,1-2.2-.45,5,5,0,0,1-1.89-1.45,6.12,6.12,0,0,1-1.31-2.41,5.78,5.78,0,0,1-.1-2.41,8,8,0,0,1,.81-2.38,14.61,14.61,0,0,1,1.49-2.25,22.26,22.26,0,0,1,1.85-2q1-1,2-1.77c.7-.59,1.44-1.15,2.23-1.7s1.62-1.06,2.44-1.53,1.63-.91,2.43-1.31,1.58-.74,2.3-1l3.5,4.16"></path>
        <path class="watermark-path"
              d="M261.64,274.74l-6.29-7.5L243,277.61l6.3,7.5-4.86,4.07-15.09-18,4.85-4.08,5.49,6.55L252,263.3l-5.49-6.55,4.86-4.07,15.09,18-4.86,4.08"></path>
        <path class="watermark-path" d="M272.18,265.9l-15.09-18,4.86-4.08,15.09,18-4.86,4.08"></path>
        <path class="watermark-path"
              d="M299.65,242.85l-22.51-2.18L287.51,253l-4.85,4.08-15.1-18,5.28-4.43,22.56,2.22L285,224.5l4.83-4.06,15.09,18-5.26,4.42"></path>
        <path class="watermark-path"
              d="M306.68,205.52a31.88,31.88,0,0,1,5.29-3.66,34.48,34.48,0,0,1,5.14-2.35l3.69,4.39a20.77,20.77,0,0,0-2.37.61,20.47,20.47,0,0,0-2.61,1,25.12,25.12,0,0,0-2.76,1.49,23.9,23.9,0,0,0-2.8,2,20.42,20.42,0,0,0-2.8,2.77,12.77,12.77,0,0,0-1.64,2.52,7,7,0,0,0-.68,2.24,6,6,0,0,0,.66,3.64,8.16,8.16,0,0,0,.94,1.38,9.12,9.12,0,0,0,1.08,1.07,6.39,6.39,0,0,0,1.47.91,6.73,6.73,0,0,0,1.88.48,6.54,6.54,0,0,0,2.28-.18,11.67,11.67,0,0,0,2.74-1.07,19.38,19.38,0,0,0,3.18-2.22c.57-.48,1.06-.92,1.46-1.31a14.57,14.57,0,0,0,1-1.13,11.46,11.46,0,0,0,.81-1.05l.74-1.09-1.82-2.17-5.45,4.57-3.31-3.94,10.31-8.65,7.71,9.19a29,29,0,0,1-1.67,2.43q-1,1.26-2.1,2.52c-.74.84-1.5,1.65-2.3,2.44s-1.58,1.5-2.33,2.14a31,31,0,0,1-3.59,2.61,22.55,22.55,0,0,1-3.64,1.83,15.64,15.64,0,0,1-3.63.89,10.72,10.72,0,0,1-3.49-.15,10.45,10.45,0,0,1-3.28-1.33,12.54,12.54,0,0,1-3-2.67,12,12,0,0,1-2.08-3.44,10.45,10.45,0,0,1-.71-3.5,11.14,11.14,0,0,1,.51-3.51,15.72,15.72,0,0,1,1.56-3.43,21.62,21.62,0,0,1,2.42-3.28,30.3,30.3,0,0,1,3.15-3"></path>
        <path class="watermark-path" d="M336.91,211.59l-15.1-18,4.86-4.08,11.79,14,13.13-11,3.31,3.94-18,15.1"></path>
        <path class="watermark-path"
              d="M374.54,164.71a12.28,12.28,0,0,1,2.59,4.81,10.44,10.44,0,0,1,0,5,14.62,14.62,0,0,1-2.33,5,25.55,25.55,0,0,1-4.56,4.85,26.07,26.07,0,0,1-5.6,3.67,14.79,14.79,0,0,1-5.38,1.43,10.43,10.43,0,0,1-4.94-.89,13.24,13.24,0,0,1-6.87-8.18,10.48,10.48,0,0,1,0-5,14.51,14.51,0,0,1,2.36-5,25.23,25.23,0,0,1,4.57-4.89,25,25,0,0,1,5.59-3.64,14.45,14.45,0,0,1,5.35-1.43,10.31,10.31,0,0,1,4.93.92,12.22,12.22,0,0,1,4.28,3.38m-4.91,4.11a8.36,8.36,0,0,0-2-1.72,5.5,5.5,0,0,0-2.65-.85,7.72,7.72,0,0,0-3.32.57,14.49,14.49,0,0,0-4,2.52,16.72,16.72,0,0,0-2.38,2.4,10.15,10.15,0,0,0-1.39,2.24,6.71,6.71,0,0,0-.56,2.1,5.69,5.69,0,0,0,.1,1.9,6.21,6.21,0,0,0,.61,1.69,9.85,9.85,0,0,0,1,1.44,10.48,10.48,0,0,0,1.26,1.23,6.67,6.67,0,0,0,1.57.92,6.1,6.1,0,0,0,1.85.41,6.8,6.8,0,0,0,2.15-.2,11.06,11.06,0,0,0,2.45-1,17.67,17.67,0,0,0,2.77-1.94,14.39,14.39,0,0,0,3.18-3.52,7.74,7.74,0,0,0,1.14-3.17,5.54,5.54,0,0,0-.37-2.74,8.52,8.52,0,0,0-1.36-2.3"></path>
        <path class="watermark-path"
              d="M382.66,141.76A32.3,32.3,0,0,1,388,138.1a34.12,34.12,0,0,1,5.15-2.35l3.69,4.4a19.62,19.62,0,0,0-2.37.6,22.08,22.08,0,0,0-2.61,1,26,26,0,0,0-2.77,1.49,23.9,23.9,0,0,0-2.8,2,21,21,0,0,0-2.8,2.78,13.19,13.19,0,0,0-1.64,2.51,7.29,7.29,0,0,0-.68,2.24,6.36,6.36,0,0,0,.06,2,5.8,5.8,0,0,0,.61,1.68,8.12,8.12,0,0,0,.93,1.38,9.16,9.16,0,0,0,1.08,1.08,6.56,6.56,0,0,0,1.48.9,6,6,0,0,0,1.87.48,6.76,6.76,0,0,0,2.28-.17,12,12,0,0,0,2.74-1.08,18.57,18.57,0,0,0,3.18-2.22c.58-.48,1.06-.92,1.46-1.31s.75-.77,1.05-1.12.57-.72.81-1.06l.73-1.09-1.82-2.17-5.45,4.57-3.3-3.94,10.3-8.65,7.71,9.19a29,29,0,0,1-1.67,2.43q-1,1.26-2.1,2.52c-.73.84-1.5,1.66-2.3,2.44s-1.57,1.5-2.33,2.14a31,31,0,0,1-3.59,2.61,22.15,22.15,0,0,1-3.64,1.83,15.56,15.56,0,0,1-3.62.89,11,11,0,0,1-3.49-.14,10.84,10.84,0,0,1-3.28-1.33,12.82,12.82,0,0,1-3-2.68,12.12,12.12,0,0,1-2.08-3.43A10.71,10.71,0,0,1,375,155a11.18,11.18,0,0,1,.51-3.51,15.51,15.51,0,0,1,1.57-3.43,21.44,21.44,0,0,1,2.42-3.28,30.19,30.19,0,0,1,3.14-3"></path>
        <path class="watermark-path"
              d="M428.63,119.31a12.26,12.26,0,0,1,2.59,4.82,10.44,10.44,0,0,1,0,5,14.53,14.53,0,0,1-2.34,5,25.29,25.29,0,0,1-4.56,4.86,26,26,0,0,1-5.59,3.67,14.84,14.84,0,0,1-5.38,1.43,10.61,10.61,0,0,1-4.95-.89,12.15,12.15,0,0,1-4.3-3.37,12,12,0,0,1-2.56-4.81,10.48,10.48,0,0,1,0-5,14.39,14.39,0,0,1,2.35-5,27.89,27.89,0,0,1,10.16-8.53,14.49,14.49,0,0,1,5.36-1.43,10.27,10.27,0,0,1,4.92.92,12.21,12.21,0,0,1,4.28,3.37m-4.91,4.12a8.17,8.17,0,0,0-2-1.72,5.58,5.58,0,0,0-2.65-.86,7.86,7.86,0,0,0-3.31.58,14.49,14.49,0,0,0-4,2.52,16.21,16.21,0,0,0-2.38,2.4,9.85,9.85,0,0,0-1.4,2.24,7,7,0,0,0-.56,2.1,6,6,0,0,0,.1,1.9,6.23,6.23,0,0,0,.62,1.69,8.49,8.49,0,0,0,1,1.44,9.18,9.18,0,0,0,1.26,1.23,6.67,6.67,0,0,0,1.57.92,6,6,0,0,0,1.84.41,6.86,6.86,0,0,0,2.16-.2,11.26,11.26,0,0,0,2.45-1,17.62,17.62,0,0,0,2.76-1.94,14.67,14.67,0,0,0,3.19-3.52,7.71,7.71,0,0,0,1.13-3.17,5.53,5.53,0,0,0-.36-2.74,8.55,8.55,0,0,0-1.37-2.3"></path>
    </g>
</svg>